<?xml version="1.0" encoding="UTF-8" standalone="no"?>
<!-- Generator: Adobe Illustrator 20.1.0, SVG Export Plug-In . SVG Version: 6.00 Build 0)  -->

<svg
   xmlns:dc="http://purl.org/dc/elements/1.1/"
   xmlns:cc="http://creativecommons.org/ns#"
   xmlns:rdf="http://www.w3.org/1999/02/22-rdf-syntax-ns#"
   xmlns:svg="http://www.w3.org/2000/svg"
   xmlns="http://www.w3.org/2000/svg"
   xmlns:sodipodi="http://sodipodi.sourceforge.net/DTD/sodipodi-0.dtd"
   xmlns:inkscape="http://www.inkscape.org/namespaces/inkscape"
   version="1.1"
   id="Layer_1"
   x="0px"
   y="0px"
   viewBox="0 0 561.89999 242.8"
   xml:space="preserve"
   inkscape:version="0.48.4 r9939"
   width="100%"
   height="100%"
   sodipodi:docname="auchan_logo.svg"><metadata
   id="metadata17"><rdf:RDF><cc:Work
       rdf:about=""><dc:format>image/svg+xml</dc:format><dc:type
         rdf:resource="http://purl.org/dc/dcmitype/StillImage" /></cc:Work></rdf:RDF></metadata><defs
   id="defs15" /><sodipodi:namedview
   pagecolor="#ffffff"
   bordercolor="#666666"
   borderopacity="1"
   objecttolerance="10"
   gridtolerance="10"
   guidetolerance="10"
   inkscape:pageopacity="0"
   inkscape:pageshadow="2"
   inkscape:window-width="1600"
   inkscape:window-height="853"
   id="namedview13"
   showgrid="false"
   fit-margin-top="0"
   fit-margin-left="0"
   fit-margin-right="0"
   fit-margin-bottom="0"
   inkscape:zoom="0.96083877"
   inkscape:cx="487.34463"
   inkscape:cy="169.94881"
   inkscape:window-x="-4"
   inkscape:window-y="-4"
   inkscape:window-maximized="1"
   inkscape:current-layer="Layer_1" />
<style
   type="text/css"
   id="style3">
	.st0{fill:#FFFFFF;}
	.st1{fill:#009656;}
	.st2{fill:#E3000F;}
</style>


<g
   id="g3006"
   transform="translate(-140.00002,-175.8)"><path
     id="path5"
     d="M 278.2,220.7 C 276.8,222.1 276.8,224.3 278.2,225.7 279.6,227.1 281.8,227.1 283.2,225.7 284.6,224.3 284.6,222.1 283.2,220.7 281.8,219.4 279.6,219.4 278.2,220.7"
     class="st0"
     inkscape:connector-curvature="0"
     style="fill:#ffffff" /><path
     id="path7"
     d="M 259.7,264.5 C 260.7,263 261.7,261.4 262.6,259.8 262.2,259.6 261.8,259.6 261.4,260.1 242.2,280.4 223.7,282.9 209.5,282.9 H 187.7 C 187.1,282.9 186.5,282.1 187,281.4 203.8,258.1 222.5,239.9 236.3,228.1 L 199.8,258.6 C 197,261 193.6,262.5 188.8,262.5 H 142.9 C 141.6,262.5 142,263.6 142.3,264.2 145.5,274.1 154.1,282.9 169.2,282.9 L 158.4,293.9 C 158,294.3 158,295.4 159,295.4 H 200 C 229.6,295.4 247.7,282.6 259.7,264.5 M 246.9,309.7 259.8,345.9 H 269.3 L 255.7,308 C 253.2,308.6 250.2,309.2 246.9,309.7 z M 283.2,225.7 C 281.8,227.1 279.6,227.1 278.2,225.7 276.8,224.3 276.8,222.1 278.2,220.7 279.6,219.3 281.8,219.3 283.2,220.7 280.3,217.8 275.5,217.8 272.6,220.7 269.7,223.6 269.7,228.4 272.6,231.3 275.5,234.2 280.3,234.2 283.2,231.3 286.1,228.4 286.1,223.6 283.2,220.7 284.6,222.1 284.6,224.3 283.2,225.7 z M 257.1,292 H 238.6 C 233.9,294.8 232.4,295.7 225.7,298.2 225.2,298.4 225.1,298.8 225.3,299.5 L 241.9,345.8 H 251.4 L 236,303.4 C 245.9,303.4 269.5,300.8 282.3,280.1 278.4,286.1 269.1,292 257.1,292 z M 313.1,218.5 H 298 L 294.3,223 C 293.7,223.6 293.9,224.3 294.5,224.5 L 299.5,226.7 313.5,220.2 C 314.4,219.8 314.1,218.5 313.1,218.5 z"
     class="st1"
     inkscape:connector-curvature="0"
     style="fill:#009656" /><path
     id="path9"
     d="M 527.4,348 H 528.5 C 543.4,347.8 553.7,342.7 559.4,334.4 L 561.1,345.8 H 588.4 V 246.8 C 577.4,243.4 564.9,240.3 541.5,240.3 508.1,240.3 489.8,260.8 489.8,298 489.8,332.7 502.6,347.8 527.4,348 M 554.8,314.1 C 551.8,317.6 546.8,321.2 538.7,321.2 529.7,321.2 524.7,312.8 524.7,296.7 524.7,276.9 530.1,267 540.8,267 547,267 550.3,267.4 554.8,268.5 V 314.1 z M 448.7,334.4 450.9,345.8 H 478 V 242.5 H 444.4 V 314.2 C 441.6,317.7 435.6,321.3 430.4,321.3 421.1,321.3 416,315.9 416,306.2 V 242.5 H 382.6 V 314.2 C 379.8,317.7 373.1,321.3 367.5,321.3 358.9,321.3 354.2,315.9 354.2,306.2 V 242.5 H 320.8 V 310.7 C 320.8,335.7 331.6,347.9 354.2,347.9 370.6,347.9 380,341.9 387.6,333.9 392.8,343.2 402.2,347.9 416,347.9 432.3,348 441.4,342.1 448.7,334.4 z M 195.4,253 216.1,236 C 220.4,224.2 224.9,212.1 229.7,202 232.1,207.4 234.3,212.8 236.6,218.6 248,209.3 254.9,203.7 264.3,201.1 258.5,188.4 254.4,179.6 252.5,175.8 H 206.6 C 202.7,184 188.1,214.4 171,255.5 H 187.6 C 190.7,255.4 193.3,254.9 195.4,253 z M 140,345.9 H 180.9 L 194.8,302.6 H 154.9 C 150.2,315.5 145.2,329.7 140,345.9 z M 263.5,305.1 278,345.9 H 318.5 C 310.1,320.9 301.1,297.4 292.7,275.9 285.6,290.3 279,297.6 263.5,305.1 z M 282.3,280.2 C 295.1,259.6 299.5,226.8 299.5,226.8 L 294.5,224.6 C 293.9,224.4 293.6,223.7 294.3,223.1 L 298,218.6 C 295.6,214.1 287.4,206.7 275.4,206.7 268.2,206.7 262,208.6 256.4,212.3 256.4,212.3 248.2,217.9 236.3,228.2 222.6,240.1 203.9,258.3 187,281.5 186.5,282.2 187.1,283 187.7,283 H 209.5 C 223.7,283 242.2,280.4 261.4,260.2 261.8,259.8 262.2,259.7 262.6,259.9 263,260.1 263.1,260.6 262.9,261 259.9,268.3 252.3,283.2 238.6,292 H 257 C 269.1,292 278.4,286.2 282.3,280.2 z M 272.6,231.4 C 269.7,228.5 269.7,223.7 272.6,220.8 275.5,217.9 280.3,217.9 283.2,220.8 286.1,223.7 286.1,228.5 283.2,231.4 280.2,234.3 275.5,234.3 272.6,231.4 z M 668.5,345.8 H 701.9 V 242.5 H 668.5 V 280.4 H 637.1 V 242.5 H 603.5 V 345.8 H 637.1 V 306.8 H 668.5 V 345.8 z"
     class="st2"
     inkscape:connector-curvature="0"
     style="fill:#e3000f" /></g>
<path
   class="st1"
   d="M 561.79998,231.5 H 551.99998 V 216.7 H 540.59998 V 231.5 H 530.79998 V 195.3 H 540.59998 V 208.7 H 551.99998 V 195.3 H 561.79998 V 231.5 z M 524.49998,231.5 H 502.99998 V 195.3 H 524.49998 V 203.2 H 512.79998 V 208.9 H 523.59998 V 216.8 H 512.79998 V 223.6 H 524.49998 V 231.5 z M 490.49998,223.5 H 498.09998 V 242.8 H 488.59998 V 231.5 H 460.79998 V 195.3 H 470.59998 V 223.5 H 480.59998 V 195.3 H 490.39998 V 223.5 z M 443.59998,231.5 H 432.29998 L 425.19998,220.2 418.19998,231.5 H 407.09998 L 419.09998,213 407.79998,195.3 H 418.59998 L 425.09998,206.5 431.39998,195.3 H 442.59998 L 431.09998,213.7 443.59998,231.5 z M 368.09998,195.3 H 376.79998 V 210.8 C 376.79998,212.5 376.69998,215.8 376.39998,220.7 H 376.59998 L 390.99998,195.2 H 403.09998 V 231.4 H 394.39998 V 216.2 C 394.39998,213.9 394.49998,210.5 394.79998,205.9 H 394.59998 L 379.99998,231.4 H 367.89998 V 195.3 z M 364.49998,231.5 H 353.39998 L 342.59998,213.2 V 231.5 H 332.79998 V 195.3 H 342.59998 V 212.8 L 352.99998,195.3 H 363.69998 L 352.49998,212.6 364.49998,231.5 z M 325.09998,203.8 C 325.09998,208.6 322.29998,211.4 316.59998,212.4 V 212.6 C 319.89998,212.9 322.29998,213.8 323.99998,215.2 325.69998,216.7 326.49998,218.6 326.49998,221.1 326.49998,223.3 325.89998,225.2 324.69998,226.8 323.49998,228.4 321.69998,229.7 319.39998,230.6 317.09998,231.5 314.39998,231.9 311.29998,231.9 305.49998,231.9 300.89998,231.2 297.49998,229.9 V 221.5 C 298.89998,222.2 300.69998,222.8 302.89998,223.2 305.09998,223.6 306.99998,223.9 308.79998,223.9 311.59998,223.9 313.59998,223.6 314.69998,223 315.89998,222.4 316.49998,221.5 316.49998,220.1 316.49998,217.7 313.69998,216.5 308.19998,216.5 H 303.89998 V 208.6 H 307.69998 C 309.59998,208.6 311.09998,208.5 312.19998,208.3 313.29998,208.1 314.09998,207.8 314.59998,207.4 315.09998,207 315.29998,206.3 315.29998,205.5 315.29998,203.7 313.59998,202.8 310.09998,202.8 306.79998,202.8 303.89998,203.6 301.39998,205.3 L 297.29998,198.6 C 299.49998,197.2 301.69998,196.2 303.89998,195.7 306.09998,195.1 308.79998,194.8 311.99998,194.8 315.99998,194.8 319.19998,195.6 321.59998,197.3 323.89998,198.9 325.09998,201.1 325.09998,203.8 z M 256.19998,195.3 H 264.89998 V 210.8 C 264.89998,212.5 264.79998,215.8 264.49998,220.7 H 264.69998 L 279.09998,195.2 H 291.19998 V 231.4 H 282.49998 V 216.2 C 282.49998,213.9 282.59998,210.5 282.89998,205.9 H 282.69998 L 268.09998,231.4 H 255.99998 V 195.3 z M 248.39998,231.5 H 238.59998 V 216.7 H 227.19998 V 231.5 H 217.39998 V 195.3 H 227.19998 V 208.7 H 238.59998 V 195.3 H 248.39998 V 231.5 z M 190.19998,231.5 H 180.39998 V 203.3 H 171.59998 V 195.3 H 198.99998 V 203.3 H 190.19998 V 231.5 z M 166.39998,231.5 H 156.59998 V 216.7 H 145.19998 V 231.5 H 135.39998 V 195.3 H 145.19998 V 208.7 H 156.59998 V 195.3 H 166.39998 V 231.5 z M 116.89998,216.7 115.29998,210.8 C 114.89998,209.5 114.49998,207.8 113.99998,205.7 113.49998,203.6 113.09998,202.1 112.99998,201.2 112.79998,202 112.59998,203.4 112.09998,205.4 111.69998,207.3 110.69998,211.1 109.19998,216.8 H 116.89998 z M 120.79998,231.5 118.99998,224.7 H 107.19998 L 105.39998,231.5 H 94.699979 L 106.49998,195.1 H 119.49998 L 131.49998,231.5 H 120.79998 z M 78.799979,211.5 H 80.599979 C 82.099979,211.5 83.199979,211.1 84.099979,210.3 84.999979,209.5 85.399979,208.3 85.399979,206.9 85.399979,204.5 83.999979,203.2 81.299979,203.2 H 78.799979 V 211.5 z M 95.299979,206.8 C 95.299979,210.8 94.099979,214 91.699979,216.2 89.299979,218.4 85.899979,219.5 81.499979,219.5 H 78.699979 V 231.5 H 68.999979 V 195.3 H 81.499979 C 86.099979,195.3 89.499979,196.3 91.799979,198.3 94.199979,200.3 95.299979,203.1 95.299979,206.8 z M 50.599979,216.7 48.999979,210.8 C 48.599979,209.5 48.199979,207.8 47.699979,205.7 47.199979,203.6 46.799979,202.1 46.699979,201.2 46.499979,202 46.299979,203.4 45.799979,205.4 45.399979,207.3 44.399979,211.1 42.899979,216.8 H 50.599979 z M 54.399979,231.5 52.599979,224.7 H 40.799979 L 38.999979,231.5 H 28.299979 L 40.099979,195.1 H 53.099979 L 65.099979,231.5 H 54.399979 z M 30.599979,195.3 V 203.2 H 16.299979 V 231.5 H 6.4999792 V 195.3 H 30.599979 z"
   id="path11"
   inkscape:connector-curvature="0"
   style="fill:#009656" />
</svg>